<svg width="1024" height="1024" viewBox="0 0 1024 1024" fill="none" xmlns="http://www.w3.org/2000/svg">
<g clip-path="url(#clip0_4067_1299)">
<path d="M438.493 80.0303L244.989 220.012L231.266 516.443L457.706 935.016L474.175 955.601L629.252 854.183L686.617 771.704L692.381 634.467L806.288 416.261L784.33 241.97L658.072 107.478L438.493 80.0303Z" fill="white"/>
<mask id="mask0_4067_1299" style="mask-type:luminance" maskUnits="userSpaceOnUse" x="460" y="281" width="108" height="177">
<path d="M460.447 281.765H567.419V457.978H460.447V281.765Z" fill="white"/>
</mask>
<g mask="url(#mask0_4067_1299)">
<path d="M567.419 354.336L484.345 457.978L508.462 384.455L460.447 384.236L542.094 281.765L518.306 354.263V354.336H567.419Z" fill="#ED2024"/>
</g>
<path fill-rule="evenodd" clip-rule="evenodd" d="M471.738 170.97C556.579 170.97 625.359 239.826 625.359 324.668C625.359 351.5 618.552 376.668 606.522 398.593C611.902 382.841 614.83 365.905 614.83 348.335C614.83 262.937 545.578 193.685 460.18 193.685C405.732 193.685 357.849 221.861 330.307 264.441C353.732 209.513 408.184 170.97 471.738 170.97ZM457.414 166.618C512.813 144.298 578.585 155.614 623.459 200.569C683.452 260.562 683.452 357.831 623.459 417.901C604.543 436.818 581.908 449.798 557.849 456.763C572.806 449.48 586.815 439.588 599.24 427.163C659.628 366.776 659.628 268.873 599.24 208.485C560.777 169.941 506.958 156.013 457.414 166.618ZM483.057 463.727C483.291 463.884 483.529 463.965 483.767 464.045C484.085 464.122 484.323 464.203 484.557 464.283C484.795 464.36 485.033 464.441 485.271 464.517C485.509 464.598 485.747 464.678 486.061 464.755C486.299 464.836 486.537 464.916 486.775 464.993C487.013 465.074 487.251 465.151 487.566 465.231C487.803 465.312 488.041 465.312 488.279 465.388C488.517 465.469 488.755 465.546 489.07 465.626C489.308 465.707 489.545 465.784 489.783 465.864C490.021 465.945 490.259 466.022 490.574 466.102C490.812 466.183 491.05 466.259 491.287 466.259C491.525 466.34 491.76 466.417 492.078 466.497C492.316 466.578 492.554 466.655 492.792 466.735C493.029 466.735 493.344 466.816 493.582 466.893C493.82 466.973 494.058 467.05 494.373 467.13C494.61 467.13 494.848 467.211 495.086 467.288C495.324 467.368 495.639 467.445 495.877 467.445C496.115 467.526 496.352 467.606 496.667 467.683C496.905 467.683 497.143 467.764 497.381 467.844C497.695 467.921 497.933 467.921 498.171 468.001C498.409 468.082 498.727 468.159 498.962 468.159C499.2 468.239 499.437 468.316 499.756 468.397C499.994 468.397 500.228 468.477 500.466 468.554C500.784 468.554 501.022 468.635 501.26 468.715C501.498 468.715 501.813 468.792 502.05 468.872C502.288 468.872 502.603 468.949 502.841 469.03C503.079 469.03 503.317 469.11 503.631 469.187C503.869 469.187 504.107 469.268 504.426 469.268C504.663 469.348 504.898 469.425 505.136 469.425C505.454 469.506 505.692 469.506 505.93 469.582C506.244 469.582 506.482 469.663 506.72 469.743C507.035 469.743 507.273 469.82 507.511 469.82C507.829 469.901 508.063 469.901 508.301 469.981C508.539 469.981 508.857 470.058 509.095 470.058C509.333 470.139 509.648 470.139 509.886 470.219C510.124 470.219 510.438 470.296 510.676 470.296C510.914 470.377 511.233 470.377 511.467 470.453C511.785 470.453 512.023 470.534 512.261 470.534C512.576 470.534 512.813 470.614 513.051 470.614C513.37 470.691 513.604 470.691 513.842 470.772C514.16 470.772 514.398 470.772 514.632 470.852C514.951 470.852 515.189 470.929 515.503 470.929C515.741 470.929 515.979 471.01 516.297 471.01C516.532 471.01 516.77 471.087 517.088 471.087C517.326 471.087 517.641 471.167 517.878 471.167C518.116 471.167 518.435 471.248 518.669 471.248C518.987 471.248 519.225 471.324 519.463 471.324C519.778 471.324 520.016 471.324 520.254 471.405H521.125C521.362 471.482 521.677 471.482 521.915 471.482C522.153 471.482 522.468 471.562 522.706 471.562H523.5C523.814 471.643 524.052 471.643 524.367 471.643C524.605 471.643 524.923 471.643 525.161 471.72H526.823C527.061 471.72 527.298 471.8 527.613 471.8H530.069C530.303 471.8 530.621 471.881 530.859 471.881H532.521C617.919 471.881 687.17 402.629 687.17 317.231V314.618C687.17 313.828 687.09 312.957 687.09 312.086C687.09 311.295 687.013 310.424 687.013 309.553C686.932 308.763 686.932 307.892 686.855 307.098C686.775 306.227 686.775 305.436 686.694 304.565C686.618 303.698 686.537 302.904 686.457 302.033C686.38 301.242 686.299 300.452 686.222 299.581C686.061 298.79 685.984 297.919 685.904 297.129C685.747 296.335 685.666 295.464 685.509 294.673C685.428 293.802 685.271 293.012 685.19 292.221C685.033 291.427 684.876 290.556 684.718 289.766C684.638 288.975 684.48 288.185 684.323 287.39C684.162 286.523 684.005 285.729 683.847 284.938C683.609 284.148 683.452 283.357 683.291 282.563C683.134 281.773 682.896 280.982 682.738 280.188C682.5 279.398 682.343 278.607 682.105 277.817C681.948 277.023 681.71 276.232 681.472 275.442C681.234 274.651 680.996 273.857 680.839 273.147C680.601 272.353 680.363 271.562 680.125 270.772C679.887 270.058 679.573 269.268 679.335 268.477C679.097 267.764 678.859 266.973 678.544 266.183C678.306 265.469 678.069 264.679 677.754 263.965C677.516 263.174 677.198 262.461 676.883 261.67C676.645 260.957 676.327 260.166 676.012 259.453C675.694 258.662 675.456 257.949 675.141 257.239C674.823 256.448 674.508 255.734 674.189 255.021C673.875 254.311 673.479 253.517 673.161 252.807C672.846 252.093 672.528 251.379 672.133 250.669C671.818 249.956 671.5 249.246 671.104 248.532C670.786 247.819 670.391 247.109 670.076 246.395C669.681 245.681 669.282 244.971 668.887 244.258C668.572 243.544 668.177 242.834 667.781 242.201C667.382 241.487 666.987 240.777 666.592 240.064C666.197 239.431 665.801 238.717 665.406 238.007C665.011 237.374 664.616 236.66 664.14 236.027C663.745 235.314 663.346 234.68 662.874 233.971C662.479 233.337 662.083 232.704 661.608 231.991C661.132 231.358 660.737 230.724 660.261 230.011C659.866 229.378 659.39 228.745 658.914 228.111C658.442 227.401 658.047 226.768 657.571 226.135C657.095 225.502 656.619 224.869 656.147 224.236C655.672 223.599 655.196 222.97 654.72 222.337C654.248 221.78 653.692 221.147 653.216 220.514C652.744 219.881 652.268 219.248 651.712 218.695C651.24 218.062 650.683 217.429 650.211 216.873C649.655 216.24 649.179 215.687 648.627 215.054C648.151 214.501 647.598 213.864 647.042 213.312C646.57 212.759 646.014 212.126 645.461 211.57C644.909 211.017 644.352 210.465 643.876 209.831C643.324 209.275 642.771 208.723 642.215 208.166C641.662 207.614 641.106 207.061 640.477 206.505L638.812 204.843C638.259 204.291 637.626 203.815 637.07 203.262C636.517 202.706 635.884 202.154 635.331 201.678C634.698 201.125 634.142 200.649 633.509 200.097C632.956 199.621 632.323 199.065 631.77 198.593C631.137 198.036 630.504 197.561 629.871 197.089C629.315 196.532 628.682 196.06 628.049 195.584C627.415 195.109 626.782 194.633 626.149 194.161L624.25 192.734C623.617 192.262 622.984 191.786 622.35 191.31C621.717 190.834 621.084 190.439 620.451 189.963C619.737 189.491 619.104 189.092 618.471 188.62C617.838 188.144 617.128 187.749 616.495 187.273C617.366 187.669 618.157 188.064 619.027 188.459C619.898 188.778 620.766 189.173 621.56 189.568C622.431 189.963 623.221 190.358 624.092 190.834C624.883 191.229 625.754 191.625 626.544 192.1C627.415 192.496 628.206 192.895 629 193.367C629.871 193.842 630.662 194.238 631.452 194.713C632.242 195.189 633.113 195.584 633.908 196.06C634.698 196.532 635.489 197.008 636.279 197.484C637.07 197.96 637.864 198.512 638.574 198.988C639.368 199.46 640.158 200.016 640.949 200.492C641.662 200.964 642.453 201.52 643.243 202.073C643.957 202.549 644.748 203.101 645.461 203.658C646.252 204.13 646.965 204.686 647.756 205.239C648.469 205.795 649.179 206.348 649.893 206.9C650.683 207.456 651.397 208.089 652.111 208.642C652.821 209.198 653.534 209.751 654.248 210.384C654.958 210.937 655.672 211.57 656.382 212.126C657.015 212.759 657.728 213.392 658.442 213.945C659.075 214.578 659.785 215.211 660.499 215.844C661.132 216.477 661.845 217.111 662.478 217.744C663.112 218.377 663.822 219.01 664.455 219.643C665.088 220.276 665.721 220.909 666.354 221.623C667.068 222.256 667.701 222.889 668.253 223.599C668.887 224.236 669.52 224.946 670.153 225.579C670.786 226.293 671.419 227.006 671.975 227.716C672.608 228.349 673.161 229.063 673.794 229.773C674.35 230.487 674.984 231.2 675.536 231.91C676.169 232.624 676.722 233.337 677.278 234.047C677.831 234.761 678.387 235.551 678.94 236.265C679.492 236.975 680.048 237.689 680.601 238.479C681.154 239.193 681.71 239.983 682.186 240.697C682.738 241.487 683.291 242.201 683.767 242.992C684.323 243.782 684.795 244.576 685.271 245.286C685.823 246.077 686.299 246.871 686.775 247.661C687.251 248.452 687.723 249.246 688.199 250.036C688.674 250.827 689.15 251.617 689.622 252.411C690.098 253.202 690.574 253.992 690.969 254.863C691.445 255.654 691.84 256.448 692.316 257.315C692.711 258.11 693.187 258.9 693.582 259.771C693.977 260.562 694.372 261.433 694.768 262.223C695.243 263.094 695.639 263.965 695.957 264.755C696.352 265.626 696.747 266.497 697.143 267.368C697.538 268.159 697.856 269.03 698.252 269.901C698.566 270.772 698.962 271.643 699.28 272.514C699.595 273.385 699.994 274.252 700.308 275.123C700.627 275.994 700.941 276.865 701.26 277.817C701.575 278.688 701.812 279.555 702.127 280.426C702.446 281.378 702.764 282.249 702.998 283.12C703.317 284.067 703.554 284.938 703.792 285.89C704.107 286.757 704.345 287.628 704.583 288.58C704.821 289.528 705.059 290.399 705.296 291.35C705.531 292.221 705.768 293.169 705.926 294.121C706.164 295.068 706.402 295.939 706.563 296.891C706.797 297.839 706.958 298.79 707.115 299.738C707.353 300.609 707.51 301.561 707.668 302.508C707.829 303.46 707.986 304.408 708.144 305.359C708.301 306.307 708.382 307.259 708.539 308.207C708.619 309.235 708.777 310.186 708.857 311.134C709.015 312.086 709.095 313.034 709.172 313.985C709.252 315.013 709.329 315.965 709.41 316.913C709.49 317.864 709.567 318.893 709.648 319.841C709.648 320.869 709.728 321.82 709.805 322.768C709.805 323.8 709.805 324.748 709.886 325.776V328.704C709.886 330.051 709.886 331.398 709.805 332.664C709.805 334.007 709.728 335.354 709.648 336.62C709.648 337.967 709.567 339.233 709.41 340.576C709.329 341.842 709.253 343.109 709.095 344.455C708.934 345.722 708.777 346.988 708.619 348.254C708.462 349.601 708.301 350.867 708.144 352.133C707.906 353.4 707.668 354.666 707.51 355.932C707.273 357.198 707.035 358.464 706.72 359.731C706.482 360.916 706.244 362.183 705.926 363.449C705.692 364.638 705.373 365.905 705.059 367.09C704.74 368.357 704.425 369.546 704.027 370.812C703.712 371.998 703.317 373.184 702.998 374.45C702.603 375.639 702.208 376.825 701.812 378.014C701.417 379.2 701.022 380.386 700.546 381.575C700.151 382.761 699.675 383.87 699.199 385.055C698.727 386.245 698.252 387.354 697.776 388.539C697.3 389.725 696.828 390.834 696.272 391.943C695.796 393.129 695.243 394.238 694.691 395.346C694.215 396.455 693.659 397.561 693.026 398.669C692.473 399.778 691.92 400.887 691.364 401.996C690.731 403.101 690.098 404.13 689.545 405.238C688.912 406.267 688.279 407.376 687.646 408.404C687.013 409.432 686.299 410.541 685.666 411.57C685.033 412.598 684.323 413.63 683.609 414.658C682.976 415.687 682.263 416.715 681.553 417.667C680.839 418.695 680.048 419.723 679.335 420.671C678.621 421.623 677.831 422.651 677.117 423.603C676.327 424.55 675.536 425.502 674.823 426.45C674.032 427.401 673.242 428.349 672.371 429.301C671.58 430.248 670.786 431.119 669.915 432.071C669.124 432.938 668.253 433.89 667.463 434.761C666.592 435.632 665.721 436.503 664.85 437.37C663.983 438.241 663.112 439.112 662.241 439.983C661.37 440.854 660.418 441.645 659.547 442.516C658.599 443.306 657.728 444.1 656.78 444.891C655.829 445.762 654.877 446.552 653.93 447.343C652.978 448.056 652.03 448.847 651.079 449.641C650.131 450.351 649.103 451.141 648.151 451.855C647.123 452.646 646.175 453.359 645.143 454.073C644.195 454.783 643.167 455.496 642.138 456.13C641.106 456.843 640.078 457.553 639.049 458.186C638.021 458.9 636.912 459.533 635.884 460.166C634.855 460.799 633.747 461.432 632.718 462.065C631.609 462.699 630.504 463.251 629.472 463.884C628.367 464.441 627.258 464.993 626.149 465.626L622.826 467.288C621.717 467.764 620.608 468.316 619.423 468.792C618.314 469.348 617.128 469.82 616.019 470.296C614.83 470.852 613.725 471.324 612.535 471.72C611.35 472.195 610.241 472.671 609.055 473.066C607.866 473.542 606.68 473.937 605.494 474.333C604.305 474.728 603.119 475.123 601.93 475.518C600.663 475.837 599.478 476.232 598.292 476.55C597.026 476.946 595.836 477.26 594.57 477.579C593.384 477.893 592.118 478.212 590.929 478.45C589.662 478.764 588.396 479.002 587.13 479.317C585.944 479.555 584.678 479.793 583.412 480.031C582.146 480.269 580.879 480.426 579.613 480.664C578.347 480.821 577.081 480.982 575.734 481.14C574.468 481.297 573.201 481.454 571.935 481.615C570.588 481.773 569.322 481.853 567.979 481.93C566.713 482.087 565.447 482.168 564.1 482.168C562.753 482.248 561.487 482.325 560.144 482.325C558.878 482.406 557.531 482.406 556.184 482.406H553.652C553.256 482.406 552.861 482.406 552.466 482.325H551.2C550.804 482.325 550.329 482.325 549.933 482.248H548.667C548.272 482.248 547.877 482.168 547.478 482.168C547.082 482.168 546.607 482.087 546.211 482.087C545.816 482.087 545.421 482.011 545.026 482.011C544.55 482.011 544.155 481.93 543.76 481.93C543.364 481.853 542.969 481.853 542.574 481.773C542.098 481.773 541.703 481.773 541.308 481.692C540.909 481.692 540.513 481.615 540.118 481.535C539.642 481.535 539.247 481.454 538.852 481.454C538.457 481.377 538.061 481.377 537.666 481.297C537.271 481.22 536.872 481.22 536.4 481.14C536.005 481.059 535.609 481.059 535.211 480.982C534.815 480.902 534.42 480.902 534.025 480.821C533.63 480.744 533.234 480.664 532.839 480.664C532.44 480.587 532.045 480.506 531.573 480.426C531.174 480.349 530.779 480.349 530.383 480.269L529.198 480.031C528.803 479.954 528.404 479.873 528.008 479.793C527.613 479.793 527.218 479.716 526.823 479.635L525.637 479.398C525.238 479.317 524.843 479.24 524.448 479.16C524.052 479.083 523.657 478.922 523.262 478.845C522.867 478.764 522.468 478.688 522.072 478.607C521.677 478.527 521.362 478.45 520.967 478.369C520.568 478.212 520.173 478.131 519.778 478.051C519.383 477.974 518.987 477.893 518.592 477.736C518.197 477.656 517.802 477.579 517.403 477.498C517.088 477.341 516.693 477.26 516.297 477.183C515.899 477.103 515.503 476.946 515.108 476.865C514.713 476.788 514.318 476.627 513.999 476.55C513.604 476.389 513.209 476.312 512.813 476.232C512.418 476.075 512.023 475.994 511.705 475.837C511.309 475.756 510.914 475.599 510.519 475.518C510.124 475.361 509.805 475.284 509.41 475.123C509.015 475.046 508.62 474.885 508.301 474.808C507.906 474.651 507.511 474.57 507.115 474.413C506.797 474.252 506.402 474.175 506.007 474.018C505.611 473.857 505.297 473.78 504.898 473.619C504.502 473.462 504.188 473.381 503.792 473.224C503.397 473.066 502.998 472.986 502.684 472.829C502.288 472.671 501.893 472.514 501.575 472.433C501.179 472.276 500.784 472.119 500.466 471.958C500.071 471.8 499.675 471.72 499.361 471.562C498.962 471.405 498.647 471.248 498.252 471.087C497.857 470.929 497.538 470.772 497.143 470.691C496.828 470.534 496.429 470.377 496.034 470.219C495.719 470.058 495.324 469.901 495.006 469.743C494.61 469.582 494.292 469.425 493.897 469.268C493.582 469.11 493.187 468.949 492.868 468.792C492.473 468.635 492.078 468.477 491.76 468.316C491.364 468.082 491.05 467.921 490.654 467.764C490.336 467.606 490.021 467.445 489.626 467.288C489.308 467.13 488.912 466.973 488.594 466.735C488.199 466.578 487.884 466.417 487.489 466.259C487.17 466.102 486.856 465.864 486.457 465.707C486.142 465.546 485.747 465.388 485.428 465.151C485.114 464.993 484.718 464.836 484.4 464.598C484.005 464.441 483.69 464.283 483.372 464.045C482.976 463.884 482.658 463.727 482.343 463.489C482.581 463.57 482.819 463.646 483.057 463.727ZM453.772 456.287C514.16 516.675 612.063 516.675 672.451 456.287C710.914 417.743 724.923 364.005 714.317 314.461C736.557 369.861 725.238 435.551 680.363 480.506C620.371 540.499 523.024 540.499 463.031 480.506C444.038 461.513 431.137 438.874 424.093 414.896C431.452 429.853 441.344 443.862 453.772 456.287ZM417.366 339.31C411.983 355.061 409.055 371.998 409.055 389.568C409.055 474.966 478.307 544.217 563.705 544.217C618.156 544.217 666.039 516.042 693.582 473.462C670.153 528.389 615.624 566.933 552.147 566.933C467.306 566.933 398.449 498.076 398.449 413.231C398.449 386.402 405.333 361.235 417.366 339.31ZM400.429 320.002C419.342 301.085 441.977 288.104 466.04 281.14C451.079 288.499 437.073 298.314 424.645 310.739C364.181 371.127 364.181 469.03 424.645 529.498C463.112 567.961 516.85 581.89 566.475 571.284C511.071 593.604 445.304 582.285 400.429 537.333C340.437 477.341 340.437 380.071 400.429 320.002ZM467.701 255.497C494.453 255.497 519.62 262.38 541.545 274.413C525.794 268.953 508.934 266.022 491.364 266.022C405.966 266.022 336.715 335.273 336.715 420.671C336.715 475.123 364.814 523.006 407.394 550.629C352.466 527.123 314.003 472.671 314.003 409.195C314.003 324.272 382.779 255.497 467.701 255.497ZM343.522 257.396C403.514 197.403 500.861 197.403 560.854 257.396C579.77 276.389 592.751 299.028 599.716 323.006C592.433 308.049 582.541 294.04 570.116 281.616C509.728 221.228 411.825 221.228 351.438 281.616C312.894 320.159 298.962 373.897 309.568 423.442C287.328 368.042 298.647 302.351 343.522 257.396Z" fill="#00A45F"/>
<path d="M558.787 657.697L659.585 772.914C667.109 781.522 680.753 780.607 687.051 771.066C769.422 646.214 849.901 492.706 849.901 369.453C849.901 183.067 698.795 32 512.453 32C326.107 32 175 183.067 175 369.453C175 557.526 362.425 816.116 457.931 935.662L580.599 778.093C585.689 771.553 585.426 762.323 579.966 756.083L475.238 636.358C464.617 624.219 450.747 615.498 435.38 610.594C330.616 577.138 255.505 477.324 259.505 360.563C263.988 229.68 369.664 122.653 500.482 116.629C645.704 109.943 765.55 225.661 765.55 369.453C765.55 488.633 683.179 588.578 572.24 615.425C553.294 620.01 545.953 643.022 558.787 657.697ZM596.24 796.49L473.192 954.554C483.776 967.542 492.658 978.129 499.281 985.906C506.191 994.019 518.681 994.038 525.594 985.924C545.133 962.974 584.372 915.589 629.016 854.513C633.799 847.97 633.43 838.975 628.094 832.878L596.24 796.49Z" fill="#00A45F"/>
</g>
<defs>
<clipPath id="clip0_4067_1299">
<rect width="1024" height="1024" fill="white"/>
</clipPath>
</defs>
</svg>
