<svg width="1920" height="96" viewBox="0 0 1920 96" fill="none" xmlns="http://www.w3.org/2000/svg">
<g clip-path="url(#clip0_3_6)">
<g filter="url(#filter0_b_3_6)">
<mask id="path-1-inside-1_3_6" fill="white">
<path fill-rule="evenodd" clip-rule="evenodd" d="M868.441 24C889.952 24 910.137 12.848 930.364 5.52532C940.108 1.99734 951.214 0 963 0C974.786 0 985.892 1.99735 995.636 5.52536C1015.86 12.8481 1036.05 24 1057.56 24H1934C1936.76 24 1939 26.2386 1939 29V91C1939 93.7614 1936.76 96 1934 96H963H-8.00005C-10.7615 96 -13 93.7614 -13 91V29C-13 26.2386 -10.7614 24 -8 24H868.441Z"/>
</mask>
<path fill-rule="evenodd" clip-rule="evenodd" d="M868.441 24C889.952 24 910.137 12.848 930.364 5.52532C940.108 1.99734 951.214 0 963 0C974.786 0 985.892 1.99735 995.636 5.52536C1015.86 12.8481 1036.05 24 1057.56 24H1934C1936.76 24 1939 26.2386 1939 29V91C1939 93.7614 1936.76 96 1934 96H963H-8.00005C-10.7615 96 -13 93.7614 -13 91V29C-13 26.2386 -10.7614 24 -8 24H868.441Z" fill="white"/>
<path d="M995.636 5.52536L994.615 8.34619L995.636 5.52536ZM931.385 8.34614C940.789 4.94132 951.548 3 963 3V-3C950.88 -3 939.427 -0.946643 929.342 2.7045L931.385 8.34614ZM963 3C974.452 3 985.211 4.94134 994.615 8.34619L996.658 2.70454C986.573 -0.946625 975.12 -3 963 -3V3ZM1057.56 27H1934V21H1057.56V27ZM1934 27C1935.1 27 1936 27.8954 1936 29H1942C1942 24.5817 1938.42 21 1934 21V27ZM1936 29V91H1942V29H1936ZM1936 91C1936 92.1045 1935.1 93 1934 93V99C1938.42 99 1942 95.4183 1942 91H1936ZM1934 93H963V99H1934V93ZM963 93H-8.00005V99H963V93ZM-8.00005 93C-9.10458 93 -10 92.1046 -10 91H-16C-16 95.4182 -12.4184 99 -8.00005 99V93ZM-10 91V29H-16V91H-10ZM-10 29C-10 27.8954 -9.10457 27 -8 27V21C-12.4183 21 -16 24.5817 -16 29H-10ZM-8 27H868.441V21H-8V27ZM994.615 8.34619C999.604 10.1522 1004.6 12.198 1009.68 14.2779C1014.75 16.3495 1019.9 18.4541 1025.1 20.3306C1035.49 24.0818 1046.3 27 1057.56 27V21C1047.31 21 1037.26 18.3422 1027.13 14.6868C1022.07 12.86 1017.04 10.8036 1011.96 8.72466C1006.89 6.65406 1001.78 4.55985 996.658 2.70454L994.615 8.34619ZM929.342 2.7045C924.218 4.5598 919.106 6.65401 914.044 8.72462C908.963 10.8035 903.929 12.86 898.866 14.6868C888.735 18.3422 878.691 21 868.441 21V27C879.703 27 890.506 24.0818 900.903 20.3306C906.103 18.4541 911.252 16.3495 916.316 14.2779C921.4 12.198 926.396 10.1522 931.385 8.34614L929.342 2.7045Z" fill="url(#paint0_linear_3_6)" mask="url(#path-1-inside-1_3_6)"/>
</g>
</g>
<defs>
<filter id="filter0_b_3_6" x="-245" y="-232" width="2416" height="560" filterUnits="userSpaceOnUse" color-interpolation-filters="sRGB">
<feFlood flood-opacity="0" result="BackgroundImageFix"/>
<feGaussianBlur in="BackgroundImageFix" stdDeviation="116"/>
<feComposite in2="SourceAlpha" operator="in" result="effect1_backgroundBlur_3_6"/>
<feBlend mode="normal" in="SourceGraphic" in2="effect1_backgroundBlur_3_6" result="shape"/>
</filter>
<linearGradient id="paint0_linear_3_6" x1="962.851" y1="-10.8165" x2="962.851" y2="54.125" gradientUnits="userSpaceOnUse">
<stop offset="0.05" stop-color="#32B768"/>
<stop offset="0.68" stop-color="#D9FFE8"/>
<stop offset="0.87" stop-color="white"/>
</linearGradient>
<clipPath id="clip0_3_6">
<rect width="1920" height="96" fill="white"/>
</clipPath>
</defs>
</svg>
