<svg width="15" height="15" viewBox="0 0 15 15" xmlns="http://www.w3.org/2000/svg">
    <g clip-path="url(#clip0_14326_4207)">
        <path
            d="M14.2396 5.49776C14.2079 5.35002 14.0626 5.25572 13.9147 5.28736C13.767 5.31901 13.6727 5.46436 13.7043 5.61223C14.3002 8.39887 13.0268 11.2045 10.5353 12.5938C9.03028 13.433 7.28838 13.6358 5.63082 13.1651C4.18354 12.7541 2.95172 11.8724 2.10378 10.6536L2.86675 10.8338C3.01387 10.8685 3.16125 10.7774 3.19592 10.6303C3.23059 10.4832 3.13956 10.3358 2.99244 10.3012L1.58248 9.96836C1.58084 9.96798 1.57933 9.96786 1.57769 9.96748C1.57164 9.96622 1.56546 9.96508 1.55929 9.9642C1.55626 9.96382 1.55336 9.96332 1.55033 9.96307C1.54403 9.96231 1.5376 9.96193 1.53117 9.96168C1.5284 9.96168 1.52575 9.96143 1.52298 9.96143C1.5163 9.96143 1.50949 9.96155 1.50281 9.96206C1.50041 9.96218 1.49802 9.96231 1.49549 9.96244C1.48856 9.96307 1.48163 9.96407 1.47469 9.96521C1.47242 9.96559 1.47028 9.96584 1.46801 9.96622C1.46133 9.96748 1.45465 9.96924 1.44797 9.97101C1.44557 9.97164 1.44305 9.97214 1.44065 9.9729C1.43473 9.97466 1.4288 9.97693 1.423 9.97908C1.41998 9.98021 1.41695 9.98122 1.41393 9.98248C1.40901 9.9845 1.40422 9.98702 1.3993 9.98941C1.39552 9.99118 1.39187 9.99294 1.38821 9.99496C1.38758 9.99534 1.38695 9.99559 1.38632 9.99584C1.38228 9.99811 1.37863 10.0006 1.37485 10.003C1.37169 10.0049 1.36854 10.0067 1.36552 10.0087C1.36501 10.009 1.36463 10.0093 1.36426 10.0097C1.35909 10.0132 1.3543 10.0171 1.34951 10.0209C1.34711 10.0228 1.34446 10.0246 1.34219 10.0266C1.33602 10.0319 1.33009 10.0374 1.32454 10.0432C1.32379 10.044 1.32291 10.0448 1.32202 10.0456C1.31559 10.0524 1.30942 10.0595 1.30374 10.0668C1.30336 10.0673 1.30299 10.068 1.30261 10.0685C1.29757 10.0751 1.29265 10.0819 1.28824 10.089C1.28597 10.0925 1.2842 10.0962 1.28206 10.0998C1.27966 10.104 1.27714 10.1082 1.275 10.1125C1.27273 10.117 1.27084 10.1217 1.26882 10.1262C1.26731 10.1298 1.26554 10.1334 1.26416 10.137C1.26227 10.142 1.26075 10.147 1.25911 10.1522C1.25798 10.1557 1.25684 10.1592 1.25584 10.1629C1.25445 10.1679 1.25331 10.1731 1.25231 10.1783C1.25155 10.182 1.25067 10.1858 1.25004 10.1896C1.24966 10.1916 1.24915 10.1936 1.24878 10.1958L1.0419 11.6296C1.02034 11.7793 1.12409 11.9179 1.27374 11.9396C1.28698 11.9415 1.30009 11.9425 1.3132 11.9425C1.44708 11.9425 1.56408 11.8442 1.58374 11.7079L1.6846 11.0089C2.07819 11.5657 2.54792 12.0586 3.08813 12.4795C3.80193 13.0357 4.60714 13.4437 5.48143 13.692C6.10938 13.8704 6.75019 13.9599 7.39491 13.9599C7.6478 13.9599 7.90133 13.9462 8.15473 13.9184C9.08626 13.817 9.97693 13.5322 10.8021 13.0722C12.1361 12.3283 13.1684 11.1994 13.7871 9.80738C14.0848 9.13785 14.2753 8.42912 14.3534 7.70085C14.4327 6.96262 14.3944 6.2215 14.2397 5.49802L14.2396 5.49776Z"
        />
        <path
            d="M1.07972 8.51137C0.483788 5.72461 1.75721 2.91894 4.24872 1.52984C5.75374 0.690635 7.49551 0.487799 9.1532 0.958521C10.6005 1.36949 11.8323 2.25118 12.6802 3.46996L11.9173 3.28982C11.7701 3.25515 11.6228 3.34617 11.5881 3.49328C11.5534 3.6404 11.6445 3.78777 11.7916 3.82243L13.2015 4.15524C13.2029 4.15562 13.2042 4.15562 13.2056 4.156C13.2131 4.15764 13.2208 4.15902 13.2285 4.16003C13.2308 4.16029 13.2329 4.16066 13.2352 4.16092C13.2445 4.16192 13.254 4.16255 13.2634 4.16255C13.2637 4.16255 13.2641 4.16255 13.2643 4.16255C13.2643 4.16255 13.2644 4.16255 13.2646 4.16255C13.2687 4.16255 13.2729 4.1623 13.2772 4.16205C13.2808 4.16192 13.2844 4.16167 13.288 4.16142C13.2923 4.16104 13.2966 4.16054 13.3008 4.16003C13.3044 4.15953 13.3081 4.1589 13.3117 4.15827C13.3158 4.15751 13.3199 4.15688 13.3239 4.156C13.3309 4.15449 13.3379 4.1526 13.3448 4.15058C13.3477 4.1497 13.3504 4.14856 13.3533 4.14755C13.3584 4.14579 13.3634 4.14402 13.3683 4.14201C13.3711 4.14087 13.3739 4.13961 13.3766 4.13835C13.3823 4.13583 13.3879 4.13306 13.3934 4.13003C13.3948 4.12927 13.3962 4.12877 13.3976 4.12801C13.3981 4.12776 13.3985 4.12738 13.399 4.12713C13.4056 4.12335 13.4121 4.11944 13.4184 4.11515C13.4188 4.1149 13.4193 4.11452 13.4196 4.11415C13.4249 4.11049 13.43 4.10646 13.4349 4.10255C13.4372 4.10078 13.4396 4.09914 13.4417 4.09725C13.4481 4.09171 13.4543 4.08591 13.4602 4.07986C13.4607 4.07935 13.4614 4.07885 13.462 4.07822C13.4686 4.07141 13.4746 4.06435 13.4804 4.05691C13.4804 4.05691 13.4804 4.05679 13.4805 4.05666C13.4861 4.0496 13.4911 4.04229 13.4959 4.03473C13.4981 4.03132 13.4998 4.02779 13.5018 4.02426C13.5042 4.01998 13.5069 4.01569 13.509 4.01128C13.5113 4.00687 13.5132 4.0022 13.5151 3.99766C13.5166 3.99401 13.5183 3.99035 13.5197 3.9867C13.5216 3.98178 13.5231 3.97674 13.5248 3.97169C13.5259 3.96816 13.527 3.96463 13.5281 3.96098C13.5294 3.95594 13.5306 3.95077 13.5316 3.9456C13.5323 3.94182 13.5332 3.93804 13.5339 3.93425C13.5342 3.93224 13.5347 3.93022 13.5351 3.92808L13.742 2.49423C13.7636 2.34459 13.6598 2.20592 13.5102 2.18424C13.3605 2.16268 13.2218 2.26643 13.2001 2.41607L13.0993 3.11509C12.7057 2.55827 12.236 2.06536 11.6958 1.64443C10.982 1.08824 10.1768 0.680298 9.30246 0.431953C8.42843 0.183733 7.52905 0.107465 6.62942 0.205416C5.69789 0.306898 4.80721 0.591675 3.98209 1.05168C2.64802 1.79558 1.61576 2.92448 0.997016 4.31648C0.699366 4.986 0.508875 5.69473 0.430712 6.423C0.351541 7.16123 0.38974 7.90236 0.544427 8.62584C0.57191 8.7543 0.685499 8.84229 0.81182 8.84229C0.83073 8.84229 0.850019 8.84027 0.869308 8.83624C1.01706 8.8046 1.11136 8.65925 1.07972 8.51137Z"
        />
        <path
            d="M7.39102 1.84375C4.50857 1.84375 2.17188 4.18034 2.17188 7.06266C2.17188 9.94498 4.50857 12.2814 7.39102 12.2814C10.2735 12.2814 12.6102 9.94485 12.6102 7.06266C12.6102 4.18047 10.2735 1.84375 7.39102 1.84375ZM9.4046 3.37441L8.74664 4.40637L8.17479 5.30319L7.51986 6.33036L7.55012 6.3262L7.86025 6.28371L8.94142 6.13559L9.01101 6.12601L9.27891 6.08932L9.12863 6.29771L8.9031 6.61034L8.60683 7.02118L8.21665 7.56212L7.96678 7.90855L7.51192 8.53912L7.30239 8.82969L6.92393 9.3545L6.78992 9.54031L6.46063 9.99692L6.23257 10.3131L6.08784 10.5138L5.93227 10.7295L5.87882 10.8037L5.90844 10.7228L5.99253 10.4926L6.46895 9.18822L6.54257 8.98652L6.97323 7.8077L7.05719 7.57776L7.09753 7.46732L6.91208 7.49266L6.5872 7.53704L5.34391 7.7071L5.35954 7.6718L5.47754 7.40656L5.64912 7.02106L5.84264 6.58614L5.93227 6.38482L6.22929 5.71756L6.33052 5.49002L6.63574 4.80423L6.78135 4.47709L7.29584 3.32122H9.43839L9.4046 3.37429V3.37441Z"
        />
    </g>
</svg>
    